<svg width="20" height="20" viewBox="0 0 20 20" fill="none" xmlns="http://www.w3.org/2000/svg">
<path fill-rule="evenodd" clip-rule="evenodd" d="M10 0C4.47715 0 0 4.47715 0 10C0 15.5228 4.47715 20 10 20C15.5228 20 20 15.5228 20 10C20 4.47715 15.5228 0 10 0ZM6.21048 4.33333H14.1229C14.7901 4.33333 15.3333 4.87 15.3333 5.535V16L14.0638 14.8917L13.3493 14.2383L12.5935 13.5442L12.9065 14.6233H6.21048C5.54324 14.6233 5 14.0867 5 13.4217V5.535C5 4.87 5.54324 4.33333 6.21048 4.33333Z" fill="#0711FD"/>
<path fill-rule="evenodd" clip-rule="evenodd" d="M11.8436 11.9517C11.8436 11.9517 11.631 11.7008 11.4539 11.4792C12.2274 11.2633 12.5227 10.785 12.5227 10.785C12.2806 10.9425 12.0503 11.0533 11.8436 11.1292C11.5484 11.2517 11.2649 11.3333 10.9874 11.38C10.4206 11.485 9.90095 11.4558 9.45809 11.3742C9.12152 11.31 8.83218 11.2167 8.59009 11.1233C8.45428 11.0708 8.30666 11.0067 8.15904 10.925C8.15018 10.9192 8.14133 10.9148 8.13247 10.9104C8.12361 10.906 8.11476 10.9017 8.1059 10.8958C8.09409 10.89 8.08818 10.8842 8.08228 10.8783C7.97599 10.82 7.91695 10.7792 7.91695 10.7792C7.91695 10.7792 8.20037 11.2458 8.95028 11.4675C8.77314 11.6892 8.55466 11.9517 8.55466 11.9517C7.24971 11.9108 6.75371 11.065 6.75371 11.065C6.75371 9.18665 7.60399 7.66415 7.60399 7.66415C8.45428 7.03415 9.26323 7.05165 9.26323 7.05165L9.32228 7.12165C8.25942 7.42499 7.76933 7.88582 7.76933 7.88582C7.76933 7.88582 7.89923 7.81582 8.11771 7.71665C8.74952 7.44249 9.25142 7.36665 9.45809 7.34915L9.47133 7.34694C9.50111 7.34193 9.52754 7.33749 9.55847 7.33749C9.91866 7.29082 10.3261 7.27915 10.7512 7.32582C11.3122 7.38999 11.9145 7.55332 12.5286 7.88582C12.5286 7.88582 12.0621 7.44832 11.0583 7.14499L11.1409 7.05165C11.1409 7.05165 11.9499 7.03415 12.8002 7.66415C12.8002 7.66415 13.6505 9.18665 13.6505 11.065C13.6505 11.065 13.1486 11.9108 11.8436 11.9517ZM9.2642 9.33332C8.93028 9.33332 8.66666 9.63362 8.66666 9.99999C8.66666 10.3664 8.93614 10.6667 9.2642 10.6667C9.59812 10.6667 9.86174 10.3664 9.86174 9.99999C9.8676 9.63362 9.59812 9.33332 9.2642 9.33332ZM10.8049 9.99999C10.8049 9.63362 11.0685 9.33332 11.4025 9.33332C11.7364 9.33332 12 9.63362 12 9.99999C12 10.3664 11.7364 10.6667 11.4025 10.6667C11.0744 10.6667 10.8049 10.3664 10.8049 9.99999Z" fill="#0711FD"/>
</svg>
