<svg width="20" height="20" viewBox="0 0 20 20" fill="none" xmlns="http://www.w3.org/2000/svg">
<path d="M10.018 0.0749817C4.50612 0.0749817 0.0365295 4.61994 0.0365295 10.2269C0.0365295 14.7123 2.89653 18.5177 6.86248 19.8601C7.36132 19.9541 7.54446 19.6399 7.54446 19.3718C7.54446 19.1297 7.53521 18.33 7.53091 17.4817C4.75405 18.0958 4.1681 16.2839 4.1681 16.2839C3.71405 15.1104 3.05984 14.7984 3.05984 14.7984C2.15422 14.1683 3.1281 14.1813 3.1281 14.1813C4.13041 14.2527 4.65818 15.2274 4.65818 15.2274C5.54843 16.7795 6.99322 16.3308 7.56281 16.0714C7.6524 15.4154 7.91107 14.9672 8.19653 14.7138C5.9795 14.4571 3.64893 13.5866 3.64893 9.69665C3.64893 8.58827 4.03884 7.68264 4.67736 6.97169C4.57372 6.71582 4.23207 5.68343 4.77405 4.28506C4.77405 4.28506 5.61223 4.01221 7.51967 5.32568C8.31587 5.10075 9.16975 4.98794 10.018 4.98408C10.8663 4.98794 11.7208 5.10075 12.5185 5.32568C14.4236 4.01221 15.2607 4.28506 15.2607 4.28506C15.804 5.68343 15.4621 6.71582 15.3585 6.97169C15.9985 7.68264 16.3858 8.58827 16.3858 9.69665C16.3858 13.5959 14.0507 14.4544 11.8281 14.7058C12.1861 15.0208 12.5051 15.6386 12.5051 16.5858C12.5051 17.944 12.4936 19.0372 12.4936 19.3718C12.4936 19.6419 12.6732 19.9585 13.1792 19.8588C17.143 18.5149 19.9993 14.7108 19.9993 10.2269C19.9993 4.61994 15.5304 0.0749817 10.018 0.0749817Z" fill="#0711FD"/>
<path d="M3.81703 14.651C3.79505 14.7016 3.71703 14.7165 3.64596 14.6819C3.57356 14.6488 3.5329 14.58 3.55637 14.5294C3.57786 14.4775 3.65604 14.4632 3.72827 14.4976C3.80083 14.5309 3.84215 14.6004 3.81703 14.651Z" fill="#0711FD"/>
<path d="M4.22132 15.1096C4.17372 15.1545 4.08066 15.1336 4.01752 15.0627C3.95223 14.9919 3.94 14.8973 3.98826 14.8517C4.03735 14.8068 4.1276 14.8278 4.19306 14.8986C4.25835 14.9702 4.27107 15.0642 4.22132 15.1096Z" fill="#0711FD"/>
<path d="M4.61487 15.6943C4.55371 15.7375 4.45371 15.697 4.3919 15.6067C4.33074 15.5164 4.33074 15.4081 4.39322 15.3648C4.4552 15.3214 4.55371 15.3604 4.61636 15.45C4.67735 15.5416 4.67735 15.6501 4.61487 15.6943Z" fill="#0711FD"/>
<path d="M5.15405 16.2591C5.09934 16.3205 4.98281 16.304 4.89752 16.2203C4.81025 16.1384 4.78595 16.0223 4.84082 15.9609C4.8962 15.8994 5.01339 15.9167 5.09934 15.9997C5.18595 16.0814 5.21239 16.1984 5.15405 16.2591Z" fill="#0711FD"/>
<path d="M5.89786 16.5871C5.87372 16.6666 5.76149 16.7028 5.64843 16.669C5.53554 16.6342 5.46166 16.5411 5.48447 16.4607C5.50794 16.3807 5.62067 16.343 5.73455 16.3792C5.84728 16.4138 5.92133 16.5063 5.89786 16.5871Z" fill="#0711FD"/>
<path d="M6.71471 16.648C6.71752 16.7317 6.62165 16.8011 6.50297 16.8025C6.38363 16.8053 6.2871 16.7376 6.28578 16.6552C6.28578 16.5707 6.3795 16.5019 6.49884 16.4999C6.61752 16.4975 6.71471 16.5648 6.71471 16.648Z" fill="#0711FD"/>
<path d="M7.47487 16.5163C7.48909 16.5981 7.40661 16.6819 7.28876 16.7041C7.17289 16.7258 7.06562 16.6754 7.05091 16.5944C7.03653 16.5106 7.12049 16.4267 7.23619 16.4051C7.35421 16.3842 7.45983 16.4333 7.47487 16.5163Z" fill="#0711FD"/>
</svg>
