<svg width="20" height="20" viewBox="0 0 20 20" fill="none" xmlns="http://www.w3.org/2000/svg">
<path fill-rule="evenodd" clip-rule="evenodd" d="M0 10C0 15.5228 4.47715 20 10 20C15.5228 20 20 15.5228 20 10C20 4.47715 15.5228 0 10 0C4.47715 0 0 4.47715 0 10ZM14.811 8.90653C14.811 11.7093 11.1248 15.8898 10.1947 15.8898C9.13269 15.8898 5.44654 11.7093 5.44654 8.90653C5.44654 6.22362 7.54281 4 10.1947 4C12.7146 4 14.811 6.22362 14.811 8.90653Z" fill="#0711FD"/>
<path d="M7.88948 6.9128C7.88945 6.9159 7.88944 6.919 7.88944 6.92211C7.88944 7.53422 8.39072 8.03041 9.00906 8.03041C9.6274 8.03041 10.1287 7.53422 10.1287 6.92211C10.1287 6.46698 9.85166 6.07598 9.45546 5.90528C9.69513 5.8454 9.9479 5.81369 10.2102 5.81369C11.7027 5.81369 12.9788 7.07686 12.9788 8.71565C12.9788 10.1932 11.7027 11.4563 10.2102 11.4563C8.55465 11.4563 7.27869 10.1932 7.27869 8.71565C7.27869 8.02619 7.50453 7.40321 7.88948 6.9128Z" fill="#0711FD"/>
</svg>
