<svg width="20" height="20" viewBox="0 0 20 20" fill="none" xmlns="http://www.w3.org/2000/svg">
<path fill-rule="evenodd" clip-rule="evenodd" d="M20 10C20 15.5228 15.5228 20 10 20C4.47715 20 0 15.5228 0 10C0 4.47715 4.47715 0 10 0C15.5228 0 20 4.47715 20 10ZM6.69646 9.08397C5.69472 9.52134 4.66545 9.97074 3.72427 10.4892L3.7242 10.4892C3.23275 10.849 3.88599 11.1035 4.49877 11.3423C4.59619 11.3802 4.69259 11.4178 4.7832 11.4553C4.85861 11.4785 4.93529 11.5029 5.01299 11.5277C5.69452 11.7448 6.45447 11.9869 7.11612 11.6227C8.20303 10.9983 9.22875 10.2765 10.2537 9.55519C10.5895 9.31887 10.9252 9.08262 11.263 8.84987C11.2788 8.83975 11.2966 8.82817 11.3161 8.81552C11.6039 8.629 12.251 8.20955 12.0116 8.78753C11.4456 9.40653 10.8393 9.95448 10.2298 10.5054C9.81895 10.8767 9.40664 11.2494 9.00414 11.646C8.65356 11.9309 8.28955 12.5037 8.6821 12.9025C9.58623 13.5355 10.5045 14.1531 11.4222 14.7703C11.7209 14.9712 12.0194 15.172 12.3174 15.3733C12.8225 15.7765 13.6119 15.4504 13.7229 14.8202C13.7723 14.5303 13.8219 14.2404 13.8715 13.9505C14.1455 12.3486 14.4196 10.7461 14.6617 9.13895C14.6946 8.88686 14.7319 8.63476 14.7692 8.38254C14.8597 7.77125 14.9502 7.1592 14.9785 6.54462C14.9056 5.93131 14.162 6.06616 13.7481 6.20407C11.6209 7.01348 9.51502 7.8829 7.41744 8.76765C7.17982 8.87292 6.93895 8.97809 6.69646 9.08397Z" fill="#0711FD"/>
</svg>
